<?xml version="1.0" standalone="no"?>
<!DOCTYPE svg PUBLIC "-//W3C//DTD SVG 20010904//EN"
 "http://www.w3.org/TR/2001/REC-SVG-20010904/DTD/svg10.dtd">
<svg version="1.0" xmlns="http://www.w3.org/2000/svg"
 width="32.000000pt" height="32.000000pt" viewBox="0 0 32.000000 32.000000"
 preserveAspectRatio="xMidYMid meet">

<g transform="translate(0.000000,32.000000) scale(0.100000,-0.100000)"
fill="#000000" stroke="none">
<path d="M114 290 c-12 -4 -31 -21 -43 -36 -39 -49 -23 -117 47 -194 l40 -45
36 35 c44 42 76 105 76 149 0 47 -55 101 -101 100 -19 0 -44 -4 -55 -9z m107
-39 c16 -16 29 -40 29 -52 0 -31 -35 -101 -65 -129 l-25 -23 -25 23 c-30 28
-65 98 -65 129 0 34 52 81 90 81 22 0 41 -9 61 -29z"/>
<path d="M132 250 c-49 -20 -46 -104 5 -116 59 -15 103 28 83 81 -7 19 -50 49
-63 44 -1 0 -12 -4 -25 -9z m63 -60 c0 -33 -2 -35 -35 -35 -29 0 -36 4 -38 23
-6 40 5 54 40 50 30 -3 33 -6 33 -38z"/>
</g>
</svg>
