<?xml version="1.0" standalone="no"?>
<!DOCTYPE svg PUBLIC "-//W3C//DTD SVG 20010904//EN"
 "http://www.w3.org/TR/2001/REC-SVG-20010904/DTD/svg10.dtd">
<svg version="1.0" xmlns="http://www.w3.org/2000/svg"
 width="24.000000pt" height="24.000000pt" viewBox="0 0 24.000000 24.000000"
 preserveAspectRatio="xMidYMid meet">

<g transform="translate(0.000000,24.000000) scale(0.100000,-0.100000)"
fill="#000000" stroke="none">
<path d="M38 189 c-14 -8 -18 -23 -18 -69 0 -72 10 -80 100 -80 90 0 100 8
100 80 0 48 -4 61 -19 70 -25 13 -141 13 -163 -1z m157 -69 l0 -55 -75 0 -75
0 -3 44 c-5 70 -2 72 80 69 l73 -3 0 -55z"/>
<path d="M100 120 c0 -34 7 -37 36 -16 19 15 19 15 -1 30 -29 22 -35 20 -35
-14z"/>
</g>
</svg>
