<?xml version="1.0" standalone="no"?>
<!DOCTYPE svg PUBLIC "-//W3C//DTD SVG 20010904//EN"
 "http://www.w3.org/TR/2001/REC-SVG-20010904/DTD/svg10.dtd">
<svg version="1.0" xmlns="http://www.w3.org/2000/svg"
 width="24.000000pt" height="24.000000pt" viewBox="0 0 24.000000 24.000000"
 preserveAspectRatio="xMidYMid meet">

<g transform="translate(0.000000,24.000000) scale(0.100000,-0.100000)"
fill="#000000" stroke="none">
<path d="M42 204 c-19 -13 -22 -24 -22 -83 0 -89 13 -101 102 -101 85 0 98 13
98 102 0 84 -14 98 -96 98 -38 0 -68 -6 -82 -16z m146 -16 c7 -7 12 -37 12
-68 0 -31 -5 -61 -12 -68 -16 -16 -120 -16 -136 0 -16 16 -16 120 0 136 16 16
120 16 136 0z"/>
<path d="M160 170 c0 -5 5 -10 10 -10 6 0 10 5 10 10 0 6 -4 10 -10 10 -5 0
-10 -4 -10 -10z"/>
<path d="M85 150 c-11 -13 -15 -27 -11 -44 11 -46 81 -46 92 0 7 28 -19 64
-46 64 -9 0 -25 -9 -35 -20z m60 -20 c8 -25 -1 -40 -25 -40 -23 0 -38 39 -19
51 22 14 37 10 44 -11z"/>
</g>
</svg>
