<?xml version="1.0" standalone="no"?>
<!DOCTYPE svg PUBLIC "-//W3C//DTD SVG 20010904//EN"
 "http://www.w3.org/TR/2001/REC-SVG-20010904/DTD/svg10.dtd">
<svg version="1.0" xmlns="http://www.w3.org/2000/svg"
 width="24.000000pt" height="24.000000pt" viewBox="0 0 24.000000 24.000000"
 preserveAspectRatio="xMidYMid meet">

<g transform="translate(0.000000,24.000000) scale(0.100000,-0.100000)"
fill="#000000" stroke="none">
<path d="M38 209 c-15 -8 -18 -25 -18 -94 0 -100 5 -105 100 -105 95 0 100 5
100 105 0 73 -3 86 -19 95 -25 13 -141 13 -163 -1z m162 -94 l0 -75 -80 0 -80
0 0 75 0 75 80 0 80 0 0 -75z"/>
<path d="M70 160 c0 -5 5 -10 11 -10 5 0 7 5 4 10 -3 6 -8 10 -11 10 -2 0 -4
-4 -4 -10z"/>
<path d="M100 105 c0 -25 5 -45 10 -45 6 0 10 14 10 30 0 37 27 41 32 5 4 -32
22 -34 26 -3 3 33 -11 50 -47 54 -31 4 -31 3 -31 -41z"/>
<path d="M65 127 c-9 -22 -2 -62 10 -60 6 1 11 14 13 29 4 32 -14 56 -23 31z"/>
</g>
</svg>
