<?xml version="1.0" standalone="no"?>
<!DOCTYPE svg PUBLIC "-//W3C//DTD SVG 20010904//EN"
 "http://www.w3.org/TR/2001/REC-SVG-20010904/DTD/svg10.dtd">
<svg version="1.0" xmlns="http://www.w3.org/2000/svg"
 width="23.000000pt" height="27.000000pt" viewBox="0 0 23.000000 27.000000"
 preserveAspectRatio="xMidYMid meet">

<g transform="translate(0.000000,27.000000) scale(0.100000,-0.100000)"
fill="#000000" stroke="none">
<path d="M23 255 c-45 -32 -18 -130 55 -203 45 -45 90 -60 121 -40 27 17 27
46 0 74 -17 19 -26 21 -41 13 -23 -12 -42 0 -64 43 -12 23 -12 31 -2 48 11 17
10 25 -2 48 -19 33 -38 38 -67 17z m48 -21 c10 -12 10 -20 1 -35 -18 -28 -15
-42 19 -88 26 -36 34 -42 56 -36 44 11 75 -37 33 -50 -66 -21 -193 158 -150
210 16 19 24 19 41 -1z"/>
</g>
</svg>
