<?xml version="1.0" standalone="no"?>
<!DOCTYPE svg PUBLIC "-//W3C//DTD SVG 20010904//EN"
 "http://www.w3.org/TR/2001/REC-SVG-20010904/DTD/svg10.dtd">
<svg version="1.0" xmlns="http://www.w3.org/2000/svg"
 width="28.000000pt" height="22.000000pt" viewBox="0 0 28.000000 22.000000"
 preserveAspectRatio="xMidYMid meet">

<g transform="translate(0.000000,22.000000) scale(0.100000,-0.100000)"
fill="#000000" stroke="none">
<path d="M16 204 c-12 -12 -16 -36 -16 -99 0 -73 3 -86 19 -95 11 -5 69 -10
130 -10 132 0 131 -1 131 119 0 100 -2 101 -144 101 -82 0 -108 -3 -120 -16z
m238 -13 c6 -9 -100 -91 -117 -91 -18 0 -118 81 -112 91 8 11 222 12 229 0z
m-185 -75 c10 -11 8 -17 -10 -30 -29 -20 -18 -32 13 -15 32 19 109 19 131 1
24 -21 34 -7 12 18 -17 19 -17 20 6 39 13 11 28 20 32 21 4 0 7 -28 5 -62 l-3
-63 -115 0 -115 0 -3 63 c-3 59 -2 63 16 53 10 -5 24 -16 31 -25z"/>
</g>
</svg>
